#!OML:ASF C:\ViconDB\ViconDB\414\Spring2016\041811\Spring2016.ASF
:FULLY-SPECIFIED
:DEGREES
155
root 7.55165 20.2228 -8.56252 -172.302 -1.56077 179.553
lowerback 17.8444 1.06462 -1.97773
upperback 2.43989 0.687287 0.508071
thorax -7.40965 0.234302 1.5266
lowerneck -14.9473 -6.48143 -16.3043
upperneck 12.056 -8.81349 19.1668
head 7.82095 -3.6437 8.15345
rclavicle 1.14301e-015 3.37934e-015
rhumerus -26.2109 13.2753 -78.9029
rradius 100.891
rwrist -0.389863
rhand -35.4473 -15.8297
rfingers 7.12502
rthumb -8.57644 -45.6355
lclavicle 1.14301e-015 3.37934e-015
lhumerus -22.277 -14.8624 66.5996
lradius 87.4625
lwrist -2.09608
lhand -37.7478 14.5525
lfingers 7.12502
lthumb -10.796 44.255
rfemur -19.6629 -17.201 21.4937
rtibia 22.8965
rfoot -20.5903 1.48433
rtoes -8.08798
lfemur -22.0424 -0.97618 -11.7556
ltibia 21.9709
lfoot -1.78553 7.69161
ltoes -11.0979
156
root 7.54841 20.1 -8.72563 -172.17 -1.35756 179.656
lowerback 18.8643 1.14822 -1.82685
upperback 2.62691 0.753235 0.475155
thorax -7.7629 0.241163 1.3878
lowerneck -15.218 -6.4443 -15.766
upperneck 11.8934 -8.66239 18.5286
head 7.72752 -3.56611 7.83682
rclavicle -2.13694e-015 3.27995e-015
rhumerus -27.6815 12.2976 -79.6599
rradius 98.4295
rwrist -0.0719383
rhand -35.7824 -15.5376
rfingers 7.12502
rthumb -8.89985 -45.3299
lclavicle -2.13694e-015 3.27995e-015
lhumerus -23.9193 -15.1459 67.8779
lradius 85.0609
lwrist -2.17081
lhand -38.4288 15.0577
lfingers 7.12502
lthumb -11.4528 44.7249
rfemur -21.4581 -17.0662 22.0444
rtibia 22.9656
rfoot -20.1701 1.42455
rtoes -7.73663
lfemur -23.608 -0.506489 -11.3863
ltibia 21.8269
lfoot -2.22038 8.23428
ltoes -11.2167
157
root 7.54266 19.9609 -8.88613 -172.112 -1.13863 179.583
lowerback 19.9614 1.21505 -1.8663
upperback 2.86983 0.7407 0.408293
thorax -8.09246 0.208531 1.34022
lowerneck -15.5213 -6.4288 -15.6876
upperneck 11.5537 -8.55406 18.5344
head 7.6504 -3.49529 7.82775
rclavicle -1.00883e-014 -3.27995e-015
rhumerus -29.0192 11.3265 -80.5213
rradius 95.9439
rwrist 0.184554
rhand -36.4882 -16.0272
rfingers 7.12502
rthumb -9.58084 -45.7894
lclavicle -1.00883e-014 -3.27995e-015
lhumerus -25.4654 -15.1984 69.1677
lradius 82.7133
lwrist -1.81242
lhand -39.2696 14.8485
lfingers 7.12502
lthumb -12.2637 44.4689
rfemur -23.2367 -16.7152 22.2452
rtibia 23.4696
rfoot -20.0766 1.31937
rtoes -7.40629
lfemur -25.2399 0.0225418 -11.2779
ltibia 22.133
lfoot -2.64703 8.4277
ltoes -11.6898
158
root 7.53338 19.7953 -9.0491 -172.358 -1.05039 179.463
lowerback 21.4497 1.27122 -1.89646
upperback 3.08805 0.689595 0.31527
thorax -8.65233 0.153269 1.26918
lowerneck -15.4457 -6.42874 -15.5403
upperneck 10.9985 -8.52868 18.6047
head 7.45353 -3.48168 7.8155
rclavicle 3.72721e-015 3.8763e-015
rhumerus -30.5566 10.3572 -81.2203
rradius 93.4846
rwrist 0.755278
rhand -36.2628 -15.7603
rfingers 7.12502
rthumb -9.36338 -45.5323
lclavicle 3.72721e-015 3.8763e-015
lhumerus -27.1139 -14.9421 70.3632
lradius 80.1708
lwrist -3.20693
lhand -38.0726 14.2218
lfingers 7.12502
lthumb -11.1093 43.9077
rfemur -24.8438 -16.5776 22.2701
rtibia 24.564
rfoot -20.0777 1.12582
rtoes -7.28771
lfemur -26.7414 0.842131 -11.3493
ltibia 22.8343
lfoot -2.5002 7.95106
ltoes -12.1558
159
root 7.52711 19.6012 -9.20173 -172.368 -0.930075 179.62
lowerback 22.6623 1.27759 -1.62765
upperback 3.28259 0.659421 0.247811
thorax -9.08017 0.100961 1.05044
lowerneck -15.4416 -6.41934 -15.426
upperneck 10.3881 -8.47635 18.7286
head 7.25267 -3.45264 7.83071
rclavicle -7.50412e-015 -2.43511e-015
rhumerus -31.8614 9.02311 -81.954
rradius 90.9672
rwrist 1.27956
rhand -35.7131 -15.9322
rfingers 7.12502
rthumb -8.83297 -45.7274
lclavicle -7.50412e-015 -2.43511e-015
lhumerus -28.6039 -14.4531 71.3794
lradius 77.6003
lwrist -3.82722
lhand -37.677 14.1005
lfingers 7.12502
lthumb -10.7277 43.8066
rfemur -27.0251 -16.4982 22.7557
rtibia 26.2933
rfoot -20.3945 0.816579
rtoes -7.07857
lfemur -28.6654 1.92109 -11.1875
ltibia 23.9316
lfoot -2.1958 7.23512
ltoes -12.3397
160
root 7.52629 19.3769 -9.36472 -172.58 -0.830501 179.768
lowerback 23.963 1.39056 -1.42691
upperback 3.56868 0.7447 0.288076
thorax -9.45178 0.0962527 0.954688
lowerneck -15.4686 -6.531 -15.636
upperneck 9.73931 -8.52912 18.989
head 7.08824 -3.47645 7.93744
rclavicle -1.31695e-015 1.49089e-015
rhumerus -33.0272 7.74816 -82.2488
rradius 88.347
rwrist 1.69851
rhand -35.7549 -16.0968
rfingers 7.12502
rthumb -8.87332 -45.8903
lclavicle -1.31695e-015 1.49089e-015
lhumerus -29.882 -14.0254 72.6305
lradius 75.1387
lwrist -4.24375
lhand -37.2905 14.113
lfingers 7.12502
lthumb -10.3549 43.838
rfemur -29.112 -16.5675 23.1933
rtibia 28.5573
rfoot -20.9463 0.235611
rtoes -6.65515
lfemur -30.4585 3.02972 -11.0641
ltibia 25.4656
lfoot -1.63106 6.34278
ltoes -12.4238
161
root 7.51999 19.1237 -9.53056 -172.75 -0.775792 179.75
lowerback 25.2071 1.34244 -1.46876
upperback 3.75165 0.556885 0.188079
thorax -9.89571 -0.0248388 0.930062
lowerneck -15.3978 -6.33184 -15.1538
upperneck 9.15848 -8.29138 18.9451
head 6.82686 -3.36557 7.8547
rclavicle -1.12189e-014 9.49197e-015
rhumerus -34.2745 6.81604 -82.9928
rradius 85.74
rwrist 2.40417
rhand -35.3711 -16.2767
rfingers 7.12502
rthumb -8.50288 -46.0855
lclavicle -1.12189e-014 9.49197e-015
lhumerus -31.4769 -13.324 73.493
lradius 72.7357
lwrist -4.46093
lhand -37.0841 14.2619
lfingers 7.12502
lthumb -10.1558 43.9968
rfemur -31.3635 -16.6125 23.412
rtibia 31.3183
rfoot -21.6247 -0.456503
rtoes -6.10566
lfemur -32.4622 4.44249 -11.3176
ltibia 27.3776
lfoot -0.846141 4.73738
ltoes -12.6939
162
root 7.51538 18.8502 -9.70265 -173.118 -0.655796 179.856
lowerback 26.473 1.40658 -1.29478
upperback 4.00241 0.562438 0.143255
thorax -10.2697 -0.0699785 0.782148
lowerneck -15.2297 -6.32238 -15.054
upperneck 8.58755 -8.26504 19.0525
head 6.61752 -3.36404 7.86704
rclavicle -2.61837e-015 3.50358e-015
rhumerus -35.5469 5.71372 -83.4201
rradius 83.2866
rwrist 3.24734
rhand -35.1884 -16.6487
rfingers 7.12502
rthumb -8.32655 -46.4646
lclavicle -2.61837e-015 3.50358e-015
lhumerus -32.7071 -12.681 74.4383
lradius 70.1894
lwrist -4.2883
lhand -36.8439 14.2176
lfingers 7.12502
lthumb -9.92403 43.9636
rfemur -33.3902 -16.6129 23.6758
rtibia 34.3063
rfoot -22.6104 -1.3333
rtoes -5.7678
lfemur -34.3624 5.89006 -11.3843
ltibia 29.7084
lfoot -0.096445 2.7048
ltoes -12.3848
163
root 7.50614 18.5435 -9.88479 -173.55 -0.557993 180.007
lowerback 27.7335 1.37961 -1.05898
upperback 4.14801 0.484546 0.0871389
thorax -10.7496 -0.149659 0.614512
lowerneck -14.7503 -6.1876 -15.0493
upperneck 8.02278 -8.10545 19.2599
head 6.34203 -3.31378 7.95324
rclavicle -5.2181e-016 -1.66482e-015
rhumerus -36.7724 4.77631 -83.8654
rradius 80.6183
rwrist 3.9223
rhand -35.1274 -16.4914
rfingers 7.12502
rthumb -8.26776 -46.3097
lclavicle -5.2181e-016 -1.66482e-015
lhumerus -34.1566 -11.806 75.2466
lradius 67.7379
lwrist -4.23559
lhand -36.622 14.4838
lfingers 7.12502
lthumb -9.70996 44.2399
rfemur -35.285 -16.5479 23.8666
rtibia 37.4429
rfoot -23.7291 -2.20707
rtoes -5.5121
lfemur -36.2389 7.60393 -11.6099
ltibia 32.337
lfoot 0.745542 0.261072
ltoes -13.2133
164
root 7.49747 18.2004 -10.0813 -173.898 -0.583431 180.175
lowerback 28.6501 1.32629 -0.818996
upperback 4.27088 0.406353 0.0698976
thorax -11.0736 -0.222341 0.489024
lowerneck -14.187 -6.04671 -15.1197
upperneck 7.50504 -7.9536 19.5524
head 6.07672 -3.2703 8.08364
rclavicle 5.34234e-015 -2.98177e-016
rhumerus -38.1916 4.13228 -84.4126
rradius 78.1356
rwrist 4.16446
rhand -36.4457 -16.4347
rfingers 7.12502
rthumb -9.53986 -46.1987
lclavicle 5.34234e-015 -2.98177e-016
lhumerus -35.5047 -11.1694 76.088
lradius 65.3428
lwrist -3.65833
lhand -37.0341 14.72
lfingers 7.12502
lthumb -10.1075 44.4572
rfemur -37.0634 -16.4459 24.0197
rtibia 40.7433
rfoot -24.2047 -3.56525
rtoes -9.44331
lfemur -38.2899 9.06722 -11.8742
ltibia 35.2988
lfoot 1.69027 -2.40945
ltoes -14.3617
165
root 7.48343 17.8478 -10.3001 -174.441 -0.343904 180.322
lowerback 29.4165 1.43683 -0.470803
upperback 4.56017 0.540732 0.00343461
thorax -11.1246 -0.217652 0.167044
lowerneck -13.8649 -6.10432 -14.9965
upperneck 7.01397 -8.01407 19.4769
head 5.8736 -3.32459 8.0213
rclavicle 2.70844e-015 -2.88238e-015
rhumerus -39.4681 2.81545 -84.7429
rradius 75.8277
rwrist 4.7257
rhand -37.0393 -16.1239
rfingers 7.12502
rthumb -10.1126 -45.8609
lclavicle 2.70844e-015 -2.88238e-015
lhumerus -36.456 -10.5948 76.9649
lradius 62.8794
lwrist -3.06641
lhand -37.5971 14.8705
lfingers 7.12502
lthumb -10.6506 44.5806
rfemur -38.3183 -16.0021 23.8522
rtibia 44.2241
rfoot -20.785 -4.61771
rtoes -9.23906
lfemur -39.8827 10.3203 -11.9878
ltibia 38.4031
lfoot 3.17508 -4.92919
ltoes -6.59859
166
root 7.471 17.5084 -10.5095 -174.968 -0.190678 180.318
lowerback 30.0597 1.50877 -0.344607
upperback 4.80618 0.57517 -0.0264201
thorax -11.1613 -0.244437 0.0510205
lowerneck -13.4769 -6.1013 -14.9897
upperneck 6.5271 -7.9915 19.4871
head 5.65529 -3.34187 8.0224
rclavicle -6.75868e-015 1.14301e-015
rhumerus -40.6081 1.85908 -85.0261
rradius 73.4682
rwrist 5.06416
rhand -37.7297 -16.4499
rfingers 7.12502
rthumb -10.7785 -46.1533
lclavicle -6.75868e-015 1.14301e-015
lhumerus -37.4945 -9.80207 77.8815
lradius 60.5584
lwrist -2.81454
lhand -37.7627 15.2164
lfingers 7.12502
lthumb -10.8104 44.9182
rfemur -39.7661 -15.8298 23.8195
rtibia 48.3297
rfoot -16.9818 -5.10633
rtoes -10.2618
lfemur -41.4503 11.5785 -12.3669
ltibia 41.8448
lfoot -1.64269 -7.07606
ltoes -8.26191
167
root 7.46544 17.1976 -10.7062 -175.484 -0.0967644 180.328
lowerback 30.6804 1.51261 -0.437355
upperback 4.97683 0.470153 -0.0245459
thorax -11.2745 -0.320061 0.151584
lowerneck -13 -5.94695 -15.044
upperneck 6.04654 -7.80693 19.7228
head 5.40938 -3.2821 8.13435
rclavicle 1.21756e-014 -6.41081e-015
rhumerus -41.7206 1.04748 -85.4682
rradius 70.9246
rwrist 6.18903
rhand -37.8505 -16.7281
rfingers 7.12502
rthumb -10.8951 -46.4254
lclavicle 1.21756e-014 -6.41081e-015
lhumerus -38.5066 -8.35779 78.4737
lradius 58.2152
lwrist -3.39537
lhand -37.1817 15.9138
lfingers 7.12502
lthumb -10.2499 45.6441
rfemur -41.1155 -15.4986 23.7177
rtibia 52.8561
rfoot -14.0863 -6.4467
rtoes -11.5948
lfemur -43.0027 12.2869 -12.3533
ltibia 45.7308
lfoot -5.1085 -6.96815
ltoes -8.23887
